<svg fill="none" xmlns="http://www.w3.org/2000/svg" viewBox="0 0 512 512"><path fill-rule="evenodd" clip-rule="evenodd" d="M461.132 326.723V168.737a57.95 57.95 0 00-28.593-49.96c-38.015-22.334-105.174-61.794-146.305-85.962a68.01 68.01 0 00-70.145.75 1891224.84 1891224.84 0 00-129.861 80.078 74.862 74.862 0 00-35.577 63.722v161.758a72.505 72.505 0 0035.913 62.594L221.89 480.82a58.924 58.924 0 0058.411.607c39.518-22.015 109.508-60.99 149.827-83.449a60.359 60.359 0 0030.976-52.725v-18.531l.027.001z" fill="#FF4088"/><path fill-rule="evenodd" clip-rule="evenodd" d="M251.964 6h.358l.319.004h1.827l.32.013h.038l.32.013h.034l.323.013h.026l.323.013h.039l.31.012h.039l.31.013h.026l.323.013h.039l.323.026h.039l.31.026h.026l.31.026h.039l.323.026h.026l.31.026h.038l.324.025h.038l.323.026h.039l.323.026h.039l.31.026h.039l.31.026h.039l.323.026h.039l.323.038h.039l.323.04h.025l.311.038h.038l.31.039h.039l.323.038h.039l.323.04h.026l.31.038h.039l.323.039h.039l.31.051.039.013.323.052h.039l.31.052h.026l.323.051h.038l.311.052h.038l.31.052h.026l.323.052h.039l.31.051.039.013.31.052.039.013.31.064h.039l.31.052h.039l.31.065h.039l.323.064h.026l.31.065h.039l.31.065h.026l.323.064.038.013.323.065h.026l.31.077.039.013.31.078h.039l.323.077.026.013.31.065.039.013.31.064.026.013.31.078h.039l.31.077.039.013.31.078.026.013.323.077.026.013.31.078.039.013.31.077h.026l.31.09h.038l.324.078.038.013.31.078h.039l.31.09.039.013.31.09.039.013.31.09.039.014.31.09.026.013.31.09.039.014.31.09.039.013.31.09.039.013.31.104.026.013.31.103h.039l.31.103h.039l.31.104.038.013.311.103.038.013.311.103.025.013.311.104.038.013.31.103.026.013.31.103.026.013.297.103.039.013.297.104.039.013.297.116.039.013.31.116.039.013.297.117.026.013.31.103.026.013.31.116.039.013.31.116.039.013.297.117.039.012.297.13.026.013.31.116.039.013.297.13.039.012.31.13.039.012.31.13.026.012.31.13.026.012.297.13.026.013.297.129.026.013.31.129.026.013.297.13.039.012.297.13.039.012.297.13.026.012.297.142.039.013.297.143.039.013.297.142.026.013.297.142.026.013.297.142.039.013.297.142.039.013.297.142.039.013.297.142.026.013.298.155.025.026.298.142.025.013.285.155.039.013.297.142.026.013.297.155.039.013.284.155.039.026.297.155.039.013.297.155.026.013.284.155.039.026.297.155.026.026.284.168.026.026.284.168.039.013.284.168.026.012.285.168.025.026.285.168.038.026.272.168h.026l146.415 86.027.246.142.025.026.246.142.039.013.232.155.026.026.233.142.026.026.232.142.026.013.233.142.025.013.233.142.026.013.233.143.038.012.233.156.026.012.232.156.039.012.233.143.026.013.232.155.026.025.233.156.026.025.219.143.039.012.233.156.025.012.233.156.026.012.22.155.025.013.22.155.026.013.22.155.026.026.219.155.026.013.22.168.038.026.22.155.026.013.22.155.026.013.219.155.026.026.22.155.026.013.219.155.026.026.22.155.026.026.219.168.039.026.207.168.039.026.219.168.039.013.22.168.026.025.219.168.026.026.207.168.039.026.219.181.039.039.414.336.051.039.414.348.052.039.426.349.052.039.426.349.052.039.413.348.052.052.414.349.051.039.401.362.052.038.4.362.052.039.401.375.051.039.388.361.052.039.4.375.052.052.388.374.051.052.388.375.052.052.374.374.052.052.375.388.052.051.374.388.039.052.375.387.052.052.361.388.052.051.362.388.052.052.361.388.052.051.362.401.052.052.349.413.038.052.362.4.052.052.349.414.052.051.348.414.039.052.349.413.052.052.336.413.039.052.336.413.051.052.336.427.039.051.323.427.039.051.323.427.039.052.323.426.039.065.323.439.038.052.323.426.039.065.31.439.039.052.31.439.039.052.31.439.039.065.297.439.039.065.297.452.039.065.284.439.039.052.284.439.039.052.297.452.039.052.284.452.039.065.272.452.038.065.285.452.038.065.272.452.039.065.271.465.039.052.258.465.039.064.258.466.039.064.259.465.038.065.259.465.026.065.258.478.026.065.245.478.026.064.246.479.039.051.232.491.026.065.246.478.025.065.233.478.039.064.22.491.025.065.22.491.026.065.22.491.025.064.22.492.026.064.207.491.026.065.206.491.026.064.194.504.026.065.194.491.026.065.193.504.026.064.194.504.026.065.194.504.026.065.181.504.025.064.168.504.026.065.168.504.026.064.168.504.026.065.168.517.013.065.155.504.026.064.155.517.013.065.155.517.026.064.155.517.026.065.142.517.026.064.142.517.013.065.129.517.026.077.142.53.013.065.129.529.026.065.116.53.026.065.129.529.013.078.116.53.013.064.117.53.013.065.103.53.013.064.103.53.013.065.104.53.013.064.09.543.013.065.09.529.013.078.091.543.013.077.077.543.013.077.078.53v.052l.038.284v.026l.026.272v.038l.039.272v.026l.039.271v.039l.039.271.013.039.038.271v.039l.026.271.013.026.026.272.013.038.026.272v.038l.026.272.012.039.026.271.013.039.026.271v.039l.026.271v.039l.026.271v.039l.026.272v.038l.025.272v.039l.013.271v.039l.013.284v.039l.026.284v.026l.013.271v.039l.013.271v.039l.013.272v.038l.013.272v.038l.013.285v.039l.013.271v.039l.013.271v.026l.013.271v180.403l-.013.297v.375l-.013.297v.039l-.013.284v.026l-.013.297v.039l-.013.284v.026l-.013.284v.039l-.013.284-.013.039-.013.284v.039l-.013.284v.026l-.013.297v.039l-.025.297v.026l-.026.298v.038l-.026.285v.038l-.013.285v.038l-.026.285v.038l-.026.285v.039l-.026.284v.039l-.025.284-.013.026-.026.297-.013.039-.026.284v.039l-.026.284-.013.039-.039.284v.039l-.038.284v.026l-.039.284v.039l-.039.284-.013.039-.039.297-.012.039-.039.285-.013.038-.039.285v.038l-.039.285v.038l-.038.285-.013.039-.039.284-.013.039-.052.284v.026l-.039.284v.026l-.051.284-.013.039-.039.284-.013.039-.039.284v.026l-.051.284v.026l-.052.285v.026l-.052.284v.039l-.051.271-.013.039-.052.271-.013.039-.052.284-.013.039-.064.284v.026l-.065.284v.026l-.051.272v.038l-.065.285v.026l-.052.284-.013.026-.064.271v.026l-.065.271v.039l-.065.271-.012.039-.065.272-.013.038-.065.272-.012.026-.065.271-.013.026-.065.271-.013.039-.077.271-.013.039-.065.271-.013.039-.077.272v.038l-.078.285-.013.038-.077.272v.039l-.078.271-.013.039-.077.271-.013.039-.078.284-.013.026-.077.271-.013.026-.078.272-.012.038-.091.272-.013.039-.077.271-.013.026-.078.271-.013.039-.077.271-.013.026-.091.272-.013.038-.09.272-.013.038-.09.272-.013.039-.091.271-.013.039-.09.271-.013.026-.091.271-.012.039-.091.271-.013.039-.09.272-.013.025-.091.272-.013.039-.09.271-.013.039-.103.258-.013.039-.091.258-.013.039-.09.259-.013.038-.091.272-.012.039-.104.271-.013.039-.103.258-.013.039-.103.258-.013.039-.104.259-.013.038-.103.259-.013.039-.103.258-.013.039-.104.258-.013.026-.116.259-.013.038-.116.272-.013.039-.103.258-.013.039-.117.258-.013.039-.116.258-.013.039-.116.259-.013.026-.116.258-.013.039-.117.258-.012.026-.117.258-.013.026-.116.259-.013.026-.116.258-.013.026-.129.258-.013.026-.13.246-.012.039-.117.258-.013.026-.129.245-.013.039-.116.259-.013.025-.129.259-.013.039-.129.258-.013.026-.13.246-.013.025-.129.259-.013.039-.129.258-.013.039-.129.258-.026.039-.129.246-.013.025-.129.259-.013.039-.129.258-.013.039-.143.245-.025.026-.143.246-.012.026-.143.245-.013.026-.142.246-.013.025-.142.246-.013.026-.142.245-.013.039-.142.246-.013.025-.142.246-.013.039-.142.245-.026.026-.142.246-.026.026-.142.245-.013.026-.142.245-.013.039-.155.246-.013.026-.142.232-.013.039-.142.233-.026.025-.155.246-.013.039-.155.232-.026.026-.155.233-.013.026-.155.245-.026.039-.155.232-.026.026-.155.233-.013.026-.155.245-.013.026-.155.233-.026.026-.168.232-.013.026-.155.233-.013.026-.168.232-.013.026-.155.233-.025.025-.156.233-.025.026-.168.233-.026.025-.155.233-.013.026-.168.232-.026.039-.155.233-.026.026-.168.232-.026.026-.168.233-.026.026-.168.232-.026.026-.168.233-.012.026-.168.219-.026.026-.168.22-.013.026-.181.219-.026.026-.168.22-.013.026-.168.232-.026.026-.181.233-.026.026-.18.219-.026.026-.181.22-.013.026-.181.219-.026.026-.181.22-.026.026-.181.219-.025.026-.181.22-.026.026-.181.219-.013.026-.181.22-.026.026-.194.219-.025.026-.181.22-.026.026-.181.22-.026.025-.181.22-.026.026-.181.22-.026.025-.18.207-.026.026-.194.22-.026.026-.181.219-.026.026-.194.22-.025.026-.181.219-.026.026-.194.207-.026.026-.194.207-.026.025-.193.207-.026.026-.194.207-.026.026-.194.206-.026.026-.194.207-.025.026-.194.207-.026.025-.194.207-.026.026-.206.207-.026.026-.194.206-.026.026-.194.194-.026.026-.206.207-.039.026-.207.206-.026.026-.207.194-.025.026-.207.207-.026.026-.207.193-.026.026-.206.194-.026.026-.207.194-.026.026-.207.193-.025.026-.207.194-.026.026-.207.194-.026.026-.219.193-.026.013-.207.194-.026.026-.22.194-.025.026-.22.194-.026.013-.22.193-.025.026-.22.181-.039.026-.22.181-.025.026-.22.194-.026.025-.22.194-.026.026-.219.194-.026.026-.22.181-.026.026-.232.181-.026.012-.22.181-.026.026-.219.181-.039.026-.22.181-.026.026-.219.181-.026.025-.22.181-.026.026-.232.181-.026.026-.22.168-.026.026-.232.181-.026.026-.233.181-.026.025-.232.181-.026.026-.233.181-.025.013-.233.168-.026.013-.232.168-.026.013-.233.168-.039.013-.232.168-.026.026-.233.168-.026.025-.232.168-.026.026-.233.168-.038.026-.233.168-.026.013-.245.168-.039.013-.246.168-.026.026-.245.168-.026.026-.246.155-.025.026-.246.168-.026.025-.232.168-.039.026-.246.155-.026.013-.245.155-.039.013-.245.155-.026.026-.246.155-.026.026-.245.155-.026.013-.245.155-.039.013-.246.155-.026.026-.245.155-.039.013-.245.155-.039.026-.246.155-.039.026-.258.155-.026.026-.245.142-.039.013-.246.142-.026.026-.258.155-.039.026-.258.142-.026.026-.246.142-.038.013-.259.142-.039.013-.258.142-.026.013-.245.142-.013.013-149.814 83.481h-.013l-.233.142-.039.013-.245.143-.039.025-.246.13-.038.013-.246.129-.026.013-.245.129-.039.013-.245.129-.039.013-.246.129-.039.013-.245.129-.026.013-.245.13-.026.012-.246.117-.026.013-.258.129-.026.026-.246.129-.025.013-.246.116-.026.013-.245.116-.026.013-.246.13-.026.013-.258.116-.026.013-.245.116-.026.013-.259.116-.025.013-.246.117-.026.012-.245.117-.039.026-.259.116-.025.013-.259.103-.026.013-.258.116-.026.026-.259.117-.038.012-.246.104-.026.013-.258.116-.026.013-.258.103-.026.013-.259.104-.026.013-.258.103-.039.013-.258.103-.039.013-.258.104-.039.013-.246.103-.026.013-.258.09-.026.013-.258.104-.039.013-.259.103-.038.013-.259.103-.039.013-.258.091-.039.013-.258.103-.039.013-.259.09-.025.013-.259.091-.039.013-.258.09-.039.013-.258.09-.039.013-.258.091-.026.013-.259.09-.258.091-.039.013-.271.077-.039.013-.259.078-.025.013-.259.09-.026.013-.271.077-.039.013-.258.078-.039.013-.259.077-.038.013-.272.091-.051.013-.517.155-.065.026-.53.155-.064.013-.53.155-.065.013-.53.142-.064.026-.53.142-.065.013-.53.142-.077.013-.53.129-.065.013-.529.129-.078.013-.53.129-.064.013-.53.116-.065.013-.543.117-.077.013-.543.116-.065.013-.542.103-.065.013-.53.091-.064.013-.53.103-.065.013-.543.09-.064.013-.543.091-.065.013-.542.077-.065.013-.543.078-.064.013-.543.077-.065.013-.542.078-.078.012-.543.065-.064.013-.543.065-.065.013-.542.064-.543.052h-.065l-.543.039-.064.013-.543.038h-.065l-.542.039h-.065l-.543.039-.077.013-.543.039h-.065l-.542.025h-.065l-.543.026h-.077l-.543.013h-.065l-.542.013h-.065l-.543.013h-1.912l-.543-.013-.543-.013h-.077l-.543-.013h-.012l-.543-.026-.064-.013-.543-.025h-.065l-.542-.026-.065-.013-.543-.026h-.064l-.543-.039-.065-.013-.542-.051-.078-.013-.543-.052-.077-.013-.543-.052-.065-.013-.542-.051h-.065l-.543-.052-.064-.013-.543-.064h-.078l-.542-.065-.078-.013-.543-.078-.064-.012-.543-.078-.065-.013-.542-.077-.065-.013-.543-.078-.064-.013-.53-.09h-.039l-.543-.104-.07-.013-.529-.103-.065-.013-.53-.103-.064-.013-.53-.104-.078-.013-.537-.103-.065-.013-.53-.116-.077-.026-.53-.116-.065-.013-.53-.129-.072-.026-.53-.13-.065-.025-.529-.142-.065-.013-.53-.143-.064-.025-.53-.143-.065-.025-.53-.143-.064-.025-.53-.156-.078-.025-.53-.155-.064-.026-.53-.155-.065-.026-.529-.155-.065-.013-.514-.168-.052-.013-.271-.091h-.035l-.259-.077-.039-.013-.258-.09-.039-.013-.258-.091-.039-.013-.258-.09-.039-.013-.259-.091-.038-.013-.259-.09-.026-.013-.258-.09-.026-.013-.258-.091-.026-.013-.259-.103-.039-.013-.258-.103-.039-.013-.258-.104-.026-.013-.259-.103-.038-.013-.259-.103-.026-.013-.258-.104-.039-.013-.258-.103-.026-.013-.259-.103-.025-.013-.259-.104-.039-.012-.258-.104-.039-.013-.258-.103-.039-.013-.259-.103-.038-.013-.259-.104-.026-.013-.258-.116-.039-.013-.245-.116-.026-.013-.259-.116-.026-.013-.258-.117-.026-.013-.258-.103-.039-.013-.246-.116-.038-.013-.259-.116-.039-.013-.245-.117-.026-.025-.246-.117-.025-.013-.246-.116-.026-.013-.258-.116-.026-.026-.258-.129-.026-.026-.246-.116-.039-.013-.258-.117-.026-.026-.245-.129-.039-.013-.259-.129-.026-.013-.245-.129-.039-.013-.245-.129-.026-.013-.246-.129-.039-.026-.245-.129-.026-.013-.245-.13-.026-.013-.246-.129-.039-.026-.245-.129-.026-.013-.245-.142-.039-.026-.246-.129-.039-.013-.245-.129-.039-.013-.245-.129-.039-.013-.246-.142-.038-.013-.233-.142-.039-.013-.232-.142-.013-.013-135.431-79.049-.013-.013-.285-.168-.025-.013-.285-.168-.038-.013-.298-.168-.038-.013-.285-.181-.026-.013-.284-.181-.026-.025-.284-.181-.026-.026-.284-.181-.039-.013-.284-.168-.039-.026-.284-.181-.026-.026-.284-.181h.065l-.284-.181-.039-.025-.284-.181-.026-.026-.284-.181-.036-.026-.285-.194-.038-.026-.285-.193-.025-.026-.285-.181-.026-.026-.284-.194-.026-.026-.284-.194-.026-.025-.271-.194-.04-.026-.277-.194-.026-.026-.271-.194-.032-.025-.272-.194-.035-.026-.271-.194-.026-.013-.271-.194-.026-.026-.268-.193-.025-.026-.267-.194-.038-.013-.272-.194-.026-.026-.271-.207-.026-.025-.271-.194-.034-.026-.271-.207-.034-.026-.258-.206-.026-.026-.259-.207-.026-.013-.258-.207-.026-.026-.258-.206-.026-.026-.259-.207-.025-.026-.259-.207-.026-.025-.258-.207-.026-.026-.258-.207-.026-.026-.259-.219-.026-.013-.258-.207-.026-.026-.25-.207-.026-.025-.259-.22-.026-.026-.258-.207-.026-.026-.258-.219-.026-.013-.254-.207-.025-.026-.246-.207-.026-.025-.245-.22-.026-.026-.246-.22-.026-.026-.245-.219-.026-.026-.246-.22-.025-.026-.246-.219-.026-.026-.245-.233-.026-.013-.246-.219-.038-.026-.24-.233-.025-.026-.246-.219-.026-.026-.24-.233-.026-.026-.233-.232-.025-.026-.233-.233-.026-.026-.245-.232-.026-.026-.246-.233-.026-.013-.232-.232-.026-.026-.233-.233-.026-.025-.232-.233-.026-.026-.233-.232-.026-.026-.232-.233-.026-.026-.233-.232-.025-.026-.22-.233-.026-.026-.232-.232-.026-.026-.233-.246-.026-.026-.22-.245-.025-.026-.22-.245-.026-.026-.233-.246-.025-.026-.22-.245-.026-.026-.22-.246-.025-.025-.22-.246-.026-.026-.22-.245-.026-.026-.22-.246-.012-.026-.207-.245-.026-.026-.22-.245-.025-.026-.233-.259-.026-.026-.22-.245-.025-.026-.22-.258-.026-.026-.206-.246-.013-.026-.207-.245-.026-.026-.207-.259-.026-.025-.22-.259-.025-.026-.207-.245-.026-.026-.22-.246-.025-.025-.207-.246-.026-.026-.207-.258-.026-.026-.206-.259-.026-.025-.207-.259-.026-.026-.207-.258-.025-.026-.207-.258-.013-.026-.194-.259-.026-.026-.194-.258-.013-.026-.193-.258-.026-.026-.194-.272-.026-.025-.194-.259-.026-.026-.193-.258-.013-.026-.194-.271-.013-.026-.194-.272-.013-.025-.194-.259-.013-.026-.194-.258-.025-.026-.194-.271-.026-.026-.194-.272-.026-.038-.18-.272-.027-.026-.18-.271-.026-.026-.181-.271-.026-.026-.18-.272-.014-.025-.18-.272-.027-.039-.18-.271-.026-.026-.181-.271-.026-.026-.181-.271-.026-.026-.18-.272-.027-.025-.168-.272-.013-.026-.168-.271-.025-.039-.181-.271-.026-.039-.181-.271-.013-.026-.181-.284-.013-.039-.168-.272-.026-.025-.168-.272-.026-.026-.168-.284-.025-.039-.168-.271-.013-.026-.168-.284-.013-.026-.168-.272-.026-.038-.168-.285-.026-.038-.168-.285-.026-.038-.155-.285-.026-.026-.168-.284-.013-.026-.155-.284-.013-.026-.155-.284-.013-.039-.155-.284-.026-.039-.155-.284-.012-.039-.156-.297-.012-.026-.156-.284-.012-.039-.156-.285-.013-.038-.155-.285-.013-.038-.142-.298-.013-.025-.155-.298-.013-.038-.155-.298-.026-.025-.142-.298-.013-.026-.142-.284-.013-.039-.142-.297v.013l-.142-.297-.026-.039-.142-.297-.013-.039-.142-.284-.013-.039-.142-.297-.013-.026-.142-.297-.013-.026-.13-.297-.012-.026-.142-.297-.013-.026-.142-.297-.013-.026-.142-.298-.014-.038-.129-.298-.013-.025-.142-.298-.013-.038-.142-.298-.013-.025-.129-.298-.013-.026-.13-.297-.012-.039-.13-.297-.012-.026-.116-.297-.013-.026-.13-.297-.013-.039-.116-.31-.013-.026-.129-.297-.013-.039-.116-.284-.013-.039-.13-.31-.012-.026-.117-.31-.013-.039-.116-.31-.013-.026-.116-.31-.013-.039-.116-.31-.013-.026-.117-.31-.012-.025-.104-.311-.013-.038-.116-.311-.013-.025-.103-.311-.013-.038-.104-.31-.013-.039-.116-.31-.013-.039-.103-.31-.013-.026-.104-.31-.013-.026-.103-.31-.013-.039-.103-.31-.013-.039-.103-.31-.013-.039-.104-.31-.013-.039-.103-.31-.012-.037-.09-.311-.013-.025-.103-.324-.013-.038-.09-.323-.014-.039-.09-.31-.013-.039-.09-.31-.014-.039-.09-.323-.013-.039-.09-.323-.013-.026-.09-.323-.014-.013-.09-.323-.013-.026-.078-.31-.012-.026-.078-.31v-.026l-.09-.323v-.038l-.078-.311-.013-.038-.078-.31-.012-.039-.078-.323h.013l-.078-.323-.013-.026-.077-.323-.013-.026-.078-.323-.012-.026-.078-.323.013-.013-.078-.323-.013-.039-.077-.323-.013-.039-.065-.323-.013-.039-.077-.323-.013-.025-.065-.324-.013-.038-.064-.323-.013-.039-.065-.323-.064-.323v-.039l-.065-.336v-.039l-.065-.323-.012-.039-.078-.31v-.039l-.065-.349-.012-.038-.065-.336-.013-.039-.052-.323-.013-.039-.051-.323v-.039l-.052-.323v-.039l-.052-.323-.013-.038-.051-.323v.012l-.052-.323v-.025l-.052-.324v-.038l-.051-.323v-.039l-.052-.323v-.026l-.039-.336v-.039l-.039-.323v-.026l-.051-.336-.013-.038-.039-.324v-.038l-.039-.336-.013-.039-.038-.336v-.039l-.04-.336-.012-.039-.039-.336v-.038l-.039-.336-.013-.026-.038-.336-.026-.336v-.039l-.039-.336-.013-.039-.039-.336v-.039l-.026-.335-.013-.039-.025-.336v-.039l-.026-.336v-.039l-.026-.336-.026-.336v-.039l-.026-.336v-.038l-.026-.336v-.418l-.013-.336v-.038l-.012-.336v-.039l-.013-.336-.013-.039-.013-.336v-.362l-.013-.336v-.039l-.013-.336V177.332l.013-.323v-.414l.013-.336v-1.189l.013-.336v-.026l.013-.336v-.038l.013-.336v-.039l.013-.336v-.026l.012-.336v-.039l.013-.336v-.038l.026-.349v-.039l.026-.336v-.026l.013-.336v-.039l.026-.336v-.038l.013-.336v-.039l.013-.336v-.039l.026-.336v-.039l.025-.336v-.039l.04-.336v-.038l.025-.336.013-.026.026-.336v-.026l.038-.336v-.026l.04-.336.012-.039.039-.336v-.038l.039-.336v-.026l.038-.336v-.026l.04-.336.012-.039.039-.336v-.039l.039-.323v-.038l.038-.336v-.039l.04-.336.012-.039.039-.323v-.039l.052-.336v-.038l.038-.336.013-.039.04-.323.012-.039.052-.336.013-.026.051-.336v-.026l.052-.336v-.026l.052-.323.013-.038.051-.324v-.038l.09-.336.014-.039.051-.323v-.039l.065-.323v-.026l.065-.323v-.026l.064-.336.013-.026.065-.323.013-.025.064-.324.013-.038.065-.323.013-.039.064-.323v-.039l.065-.323v-.026l.065-.323.013-.026.064-.323.013-.026.078-.323v-.039l.077-.323.013-.038.065-.323.013-.039.077-.323v-.039l.078-.323.013-.039.077-.323v-.039l.078-.323.013-.026.077-.323v-.026l.078-.323.013-.038.09-.323v-.026l.09-.323v-.026l.091-.323.013-.039.09-.323v-.039l.09-.323.014-.039.09-.31.013-.026.09-.323.014-.032.09-.323.013-.039.09-.315.013-.026.104-.323.013-.026.09-.31.013-.026.09-.314.013-.026.09-.32.014-.039.103-.315.013-.039.103-.31v-.026l.104-.31v-.039l.103-.31.013-.026.104-.31.012-.039.104-.31.013-.039.103-.31.013-.039.103-.31.013-.026.117-.31.013-.026.103-.31.013-.032.103-.31.013-.026.117-.31.012-.026.117-.31v-.026l.116-.31.013-.026.116-.31.013-.039.116-.31.013-.026.117-.31.013-.039.129-.297.013-.026.129-.31.013-.026.13-.31.012-.039.13-.31.012-.039.13-.31.012-.039.13-.31.013-.039.129-.31.013-.039.129-.31.013-.032.13-.297.012-.039.13-.297.012-.039.13-.31.012-.026.142-.31.013-.026.142-.297.013-.026.13-.297.013-.039.142-.297.013-.026.142-.298.013-.025.142-.298.013-.025.142-.298.013-.038.142-.298.013-.026.142-.297.013-.039.142-.297.013-.026.142-.297.013-.026.142-.297.013-.026.142-.297.013-.026.155-.284.013-.026.155-.297.026-.039.155-.297.013-.026.155-.297.013-.039.155-.284.013-.026.155-.284.013-.026.155-.285.013-.038.155-.285.026-.026.155-.284.013-.039.155-.284.026-.026.155-.284.013-.026.155-.284.026-.039.168-.284.013-.026.155-.284.013-.026.168-.285.013-.025.168-.285.013-.026.168-.284.026-.026.168-.284.012-.026.169-.284.025-.026.168-.284.013-.026.168-.284.026-.026.168-.285.013-.025.18-.285.027-.039.18-.284.014-.026.168-.271.026-.026.18-.271.026-.026.168-.284.013-.026.181-.272.013-.025.18-.272.027-.026.18-.284.026-.026.181-.271.013-.039.181-.271.013-.026.181-.272.013-.025.194-.272.026-.026.18-.271.026-.026.194-.271.013-.026.194-.271.013-.026.194-.272.013-.026.194-.271.025-.026.194-.271.013-.026.194-.271.026-.026.194-.259.013-.026.194-.271.025-.026.194-.258.026-.026.194-.259.026-.025.194-.259.025-.026.194-.258.013-.026.194-.258.026-.026.207-.259.026-.026.206-.258.026-.026.207-.258.026-.026.206-.259.026-.025.207-.259.026-.039.207-.258.013-.026.206-.258.026-.026.207-.259.026-.026.207-.245.026-.026.206-.258.026-.026.207-.259.026-.026.22-.245.025-.026.207-.258.026-.026.207-.246.025-.026.207-.258.026-.026.22-.258.013-.026.22-.246.025-.026.22-.245.026-.026.22-.246.025-.025.22-.246.013-.026.22-.245.025-.026.22-.246.026-.026.22-.245.013-.026.22-.245.025-.026.233-.246.013-.026.232-.245.026-.026.246-.233.026-.025.232-.246.026-.026.233-.245.025-.026.233-.233.026-.026.232-.232.026-.026.233-.233.026-.026.245-.232.026-.026.233-.233.026-.026.232-.232.026-.026.233-.233.026-.025.232-.233.026-.026.232-.233.026-.025.233-.233.026-.026.233-.232.025-.026.246-.22.026-.026.245-.219.026-.026.246-.233.025-.026.246-.232.026-.013.245-.22.026-.013.246-.22.026-.025.245-.22.026-.026.245-.22.026-.026.246-.219.026-.013.258-.22.026-.026.258-.219.026-.026.259-.22.026-.026.258-.207.026-.025.258-.207.026-.026.246-.207.026-.026.258-.206.026-.026.258-.207.026-.013.259-.207.026-.025.258-.207.026-.026.258-.207.026-.026.272-.206.025-.026.259-.207.026-.026.271-.207.026-.026.271-.206.026-.026.258-.207.026-.013.272-.207.026-.025.258-.207.026-.026.271-.194.026-.026.272-.207.025-.025.272-.194.026-.013.271-.194.039-.026.271-.194.026-.013.271-.193.026-.026.272-.207.025-.013.285-.194.026-.026.27-.193.04-.013.271-.194.026-.013.271-.194.026-.013.285-.194.025-.026.272-.193.025-.013.285-.181.026-.013.271-.194.039-.026.284-.181.026-.026.284-.194.026-.025.284-.181.04-.013.284-.181.025-.026.285-.18.025-.014.285-.18.026-.014.284-.18.026-.013.284-.181.039-.013.284-.168h.013l129.887-80.122.013-.013.271-.168.026-.012.285-.181.038-.026.285-.168.038-.026.285-.168.038-.026.285-.168.039-.013.297-.168.026-.026.284-.168.039-.013.284-.168.026-.013.297-.155.026-.026.297-.155.026-.025.284-.155.039-.013.297-.155.026-.026.284-.155.039-.026.284-.155.039-.026.285-.155.025-.026.298-.155.025-.013.285-.155.039-.013.284-.155.039-.013.297-.155.039-.013.297-.155.026-.013.297-.142.039-.013.297-.142.039-.013.284-.142.039-.013.297-.142.026-.013.297-.143.039-.012.297-.143.039-.025.297-.143.039-.013.297-.142.039-.013.297-.129.039-.013.297-.129.026-.026.297-.129.026-.013.297-.13.039-.025.297-.13.039-.012.297-.13.039-.012.297-.13.039-.013.297-.129.039-.013.297-.129.039-.013.297-.116.039-.013.297-.13.039-.012.31-.13.039-.012.31-.13.039-.025.297-.117.026-.013.31-.116.039-.013.297-.116.026-.013.31-.116.039-.013.31-.104.039-.013.31-.116.038-.013.311-.116.038-.013.311-.103.038-.013.31-.104.039-.013.297-.103.039-.013.31-.103.039-.013.297-.104.039-.013.31-.103.026-.013.31-.103.039-.013.31-.104.039-.012.31-.104.039-.013.31-.09.026-.013.31-.09.039-.014.31-.09h.039l.31-.09.039-.013.31-.09.026-.014.31-.09.026-.013.31-.09.039-.014.31-.09.038-.013.311-.09.038-.013.311-.078.038-.013.31-.077.026-.013.31-.09.031-.014.323-.077h.026l.31-.09h.039l.319-.078.039-.013.323-.078.039-.013.31-.077h.039l.323-.078h.039l.31-.077.039-.013.31-.065.039-.013.31-.077.039-.013.31-.065h.038l.311-.064.038-.013.311-.065h.025l.311-.064.038-.013.323-.065h.026l.323-.065.026-.013.323-.064.039-.013.323-.065.039-.013.323-.051h.039l.31-.052.039-.013.323-.065.038-.012.323-.052h.039l.31-.052.039-.013.323-.051.039-.013.31-.052h.026l.31-.052h.039l.323-.051.039-.013.323-.052h.039l.323-.052h.038l.323-.051h.039l.323-.04h.039l.31-.038h.039l.323-.039.039-.013.323-.038.026-.013.323-.026h.039l.31-.039h.039l.31-.039h.038l.323-.039h.039l.323-.038h.039l.31-.026h.039l.323-.039.039-.013.323-.026.039-.013.323-.025h.039l.317-.026h.039l.323-.026h.039l.323-.013.039-.013.323-.026.026-.013.323-.013h.039l.323-.026h.026l.323-.012h.038l.323-.013h.039l.323-.013h.039l.323-.013.039-.013.323-.013h.039l.323-.013h.039l.323-.013h.038l.323-.013h.039l.323-.013h.026l.323-.013h.401l.323-.013h.749l.069-.112zm-.297 34.892h-.212l-.212.002h-.211l-.219.005-.22.005-.22.007-.22.013-.219.013-.22.013-.207.013-.219.013-.207.013-.207.012-.207.013-.219.013-.207.013-.22.026-.22.026-.206.026-.22.026-.22.025-.219.026-.207.026-.22.026-.207.026-.206.026-.22.026-.207.025-.207.026-.206.026-.207.026-.22.026-.207.038-.206.026-.22.04-.207.038-.206.039-.207.038-.207.04-.207.038-.207.039-.206.026-.22.038-.207.04-.219.038-.207.039-.207.038-.207.04-.207.05-.206.053-.207.051-.207.039-.207.039-.206.052-.207.051-.207.052-.207.051-.206.052-.207.052-.207.052-.207.051-.206.052-.207.052-.207.064-.207.052-.207.065-.193.064-.207.065-.207.064-.207.065-.206.065-.207.064-.194.065-.207.065-.207.077-.206.065-.207.064-.207.078-.207.064-.206.065-.194.065-.207.077-.207.078-.207.077-.193.078-.207.077-.194.078-.194.077-.207.09-.206.078-.207.078-.207.078-.194.09-.194.078-.206.09-.194.09-.194.09-.194.091-.207.09-.193.091-.207.09-.194.091-.194.09-.194.091-.207.09-.193.091-.194.09-.194.104-.194.103-.194.09-.194.104-.193.09-.194.104-.194.103-.194.104-.194.103-.194.103-.193.117-.181.103-.194.103-.181.104-.194.116-.194.116-.194.117-.181.103-.193.117-.181.116-.194.116-.194.116-.207.13L95.338 128.63l-.22.142-.206.129-.194.13-.194.129-.194.129-.194.129-.193.129-.194.13-.194.129-.194.129-.194.129-.194.13-.193.142-.181.129-.181.129-.194.129-.181.13-.18.129-.182.129-.18.129-.182.13-.18.129-.181.142-.181.129-.181.142-.181.142-.181.143-.181.142-.181.142-.181.142-.168.142-.18.142-.182.143-.168.142-.18.142-.182.142-.168.142-.18.142-.168.142-.168.143-.169.155-.168.155-.168.142-.167.142-.169.155-.167.155-.168.155-.168.155-.168.155-.169.155-.168.156-.168.155-.168.155-.168.155-.167.155-.156.155-.168.155-.155.168-.168.155-.155.168-.155.155-.155.168-.155.155-.155.168-.155.168-.168.168-.155.155-.155.168-.155.168-.155.168-.142.168-.156.168-.155.168-.155.168-.155.181-.155.168-.142.168-.142.168-.155.181-.142.168-.156.168-.142.181-.142.168-.142.181-.142.181-.142.181-.142.181-.143.181-.142.18-.129.181-.142.181-.142.181-.142.181-.142.181-.13.181-.129.181-.13.181-.128.194-.13.181-.129.181-.13.193-.128.181-.13.181-.129.181-.129.181-.116.194-.13.194-.129.181-.129.193-.116.194-.117.181-.116.194-.116.194-.117.194-.116.194-.13.193-.128.194-.117.194-.116.194-.116.194-.117.194-.116.193-.116.194-.116.194-.117.194-.116.194-.116.194-.117.206-.116.194-.116.194-.117.207-.103.194-.103.207-.104.206-.103.207-.103.194-.104.194-.103.207-.104.193-.103.207-.09.194-.104.207-.103.206-.104.207-.103.207-.103.207-.09.207-.091.206-.09.207-.091.207-.09.207-.091.206-.09.207-.091.207-.09.207-.078.206-.09.207-.091.22-.09.207-.09.206-.091.207-.078.207-.09.22-.09.206-.078.207-.078.22-.077.207-.078.219-.078.207-.077.22-.078.219-.077.22-.065.22-.077.207-.078.219-.064.22-.065.207-.065.219-.077.22-.065.207-.064.207-.065.219-.078.22-.064.22-.065.206-.064.22-.065.22-.065.22-.064.219-.065.22-.052.22-.051.219-.065.22-.051.22-.065.219-.052.22-.052.22-.051.232-.052.22-.052.22-.051.219-.052.22-.052.22-.051.219-.04.22-.05.22-.04.22-.038.232-.04.233-.038.232-.039.233-.038.22-.04.219-.038.233-.039.233-.038.219-.04.22-.038.22-.039.232-.026.233-.025.232-.026.22-.04.233-.038.219-.026.233-.026.233-.025.232-.026.233-.026.232-.026.233-.026.22-.026.232-.025.233-.013.233-.026.232-.026.233-.013.232-.013.233-.013.233-.013.232-.013.233-.013.232-.013.233-.013.233-.012.232-.013.233v.233l-.013.232-.013.233v.232l-.013.233V340.19l.013.233v.698l.013.219.013.233.013.232.013.233.012.233.013.232.013.233.013.232.013.233.026.233.013.232.013.233.013.233.026.219.025.233.026.22.013.232.026.22.026.22.026.219.026.22.025.232.026.22.026.22.026.233.026.232.026.22.026.232.038.22.039.22.039.219.039.22.038.233.04.219.038.22.039.22.038.219.052.22.039.22.039.22.038.219.052.22.052.22.038.219.052.22.052.22.052.219.051.22.052.22.052.219.051.22.052.207.065.207.051.219.052.22.052.22.064.219.052.207.052.22.052.207.064.219.052.207.064.22.065.219.065.207.064.22.065.22.064.206.065.22.078.207.077.207.078.206.077.207.065.207.077.22.078.206.077.207.078.207.078.207.077.206.078.207.077.207.078.207.077.206.09.207.091.207.078.207.077.207.078.206.077.207.078.207.09.207.09.206.091.207.09.207.091.207.09.206.091.207.09.207.09.207.091.206.09.207.091.194.104.207.103.194.103.206.104.194.103.194.104.194.103.194.103.194.104.193.116.194.103.194.104.194.103.194.116.194.117.194.103.193.104.194.103.194.116.194.104.194.116.181.116.194.117.18.116.194.116.194.117.181.116.181.116.181.116.181.117.194.116.193.13.181.115.181.117.194.116.181.117.181.129.181.129.181.13.194.128.181.13.181.129.18.129.181.13.181.129.181.129.181.142.181.142.181.13.181.129.181.129.181.129.181.142.168.142.168.142.181.142.168.143.18.142.168.142.168.142.168.142.168.142.168.143.168.142.168.142.168.142.168.142.168.142.168.155.168.156.168.142.168.155.155.155.168.155.156.155.168.142.168.155.168.155.155.155.155.155.155.155.155.155.168.156.155.155.155.155.155.155.155.155.155.168.155.155.155.155.155.168.155.155.156.155.155.168.155.168.142.168.142.168.155.168.155.168.142.168.142.168.156.168.155.168.142.181.142.181.142.18.142.169.142.168.143.18.142.169.142.18.129.169.142.18.142.182.142.18.143.168.129.181.142.181.129.181.142.181.143.181.129.181.129.194.129.18.129.182.13.18.129.181.129.181.129.181.13.194.129.194.116.194.129.18.13.195.129.194.129.18.116.194.117.194.116.194.116.194.117.194.116.206.116.194.116.194.117.22.129 135.276 79.088.168.103.142.077.155.078.155.078.155.077.142.091.155.077.155.078.155.077.155.091.156.077.155.078.155.077.155.078.155.077.155.078.155.077.155.078.142.077.155.078.155.078.155.064.155.078.156.064.155.065.155.065.155.077.155.078.155.064.155.078.155.064.155.065.155.065.155.064.155.065.155.064.156.065.155.065.155.064.155.052.168.065.155.064.155.065.155.064.155.065.155.052.155.064.155.052.155.052.168.051.155.052.143.052.336.103.323.104.323.09.323.09.323.091.323.09.323.091.323.09.323.091.323.077.323.078.323.077.323.065.323.078.324.064.323.065.323.064.323.052.323.065.323.051.323.052.336.052.323.051.336.039.336.039.336.039.336.026.323.025.336.026.323.026.336.026.336.026.323.026.323.013.323.012.336.013h1.654l.336-.013h.336l.336-.012.336-.013.336-.026.336-.026.336-.013.336-.026.336-.026.336-.025.323-.026.336-.039.336-.039.323-.039.336-.038.324-.052.336-.052.323-.051.336-.052.323-.052.323-.064.323-.052.336-.065.323-.064.323-.078.323-.065.323-.077.323-.078.323-.077.323-.078.323-.09.323-.091.323-.09.324-.091.336-.103.155-.052.155-.051.155-.052.168-.052.155-.051.168-.052.155-.052.155-.051.168-.052.155-.052.155-.052.168-.064.155-.052.168-.051.155-.065.155-.052.155-.051.155-.052.168-.065.156-.051.155-.065.155-.065.155-.064.155-.065.155-.065.155-.064.155-.065.155-.064.155-.065.155-.065.155-.077.155-.078.156-.064.155-.078.155-.077.155-.065.155-.078.155-.077.155-.078.142-.077.155-.078.155-.077.155-.078.155-.077.155-.078.156-.077.155-.078.155-.077.142-.078.155-.078.155-.077.168-.091 149.866-83.52.181-.09.168-.091.155-.09.155-.09.155-.091.155-.103.168-.091.155-.09.155-.091.155-.09.155-.103.155-.104.155-.09.155-.091.156-.09.155-.104.155-.103.155-.09.155-.104.155-.09.142-.104.142-.103.142-.103.143-.104.142-.103.155-.104.142-.103.155-.103.142-.104.142-.103.142-.104.143-.103.142-.103.155-.104.142-.116.142-.103.142-.117.142-.103.143-.116.142-.117.142-.116.142-.103.142-.104.142-.116.13-.116.142-.117.142-.116.129-.103.142-.117.142-.129.13-.116.142-.116.129-.117.129-.116.129-.129.143-.117.129-.129.129-.116.129-.129.129-.13.13-.116.129-.129.129-.116.129-.13.13-.129.129-.129.129-.129.116-.13.13-.129.116-.129.129-.129.129-.13.13-.129.116-.129.116-.129.117-.129.116-.13.129-.129.116-.129.117-.129.116-.13.116-.129.117-.129.116-.129.116-.129.116-.143.117-.142.116-.142.116-.129.117-.129.116-.13.116-.142.117-.129.116-.142.103-.129.104-.143.103-.142.103-.129.117-.142.103-.142.104-.142.103-.142.103-.143.104-.142.103-.142.103-.142.104-.142.103-.142.104-.143.103-.142.103-.142.091-.142.09-.155.104-.155.103-.142.09-.142.091-.143.103-.155.104-.142.09-.142.091-.155.09-.155.091-.155.09-.155.09-.142.091-.155.09-.156.091-.142.09-.155.091-.155.09-.155.078-.155.077-.155.091-.155.09-.155.078-.155.09-.155.091-.155.077-.156.078-.155.077-.168.078-.155.09-.155.091-.155.077-.155.078-.155.077-.155.078-.168.077-.155.078-.155.077-.168.078-.155.078-.155.077-.168.078-.168.077-.168.078-.155.064-.155.065-.168.065-.168.064-.168.065-.156.064-.168.065-.168.065-.168.064-.155.065-.168.064-.168.065-.168.065-.168.064-.168.052-.168.052-.168.051-.168.052-.168.065-.168.064-.168.065-.168.065-.168.051-.168.065-.168.052-.168.051-.168.065-.168.052-.168.051-.168.052-.168.052-.168.038-.167.052-.168.052-.168.051-.168.052-.168.039-.168.039-.181.051-.168.039-.168.039-.181.052-.168.038-.168.039-.168.039-.168.039-.181.038-.168.039-.168.026-.181.039-.181.039-.168.025-.181.039-.168.039-.181.039-.181.038-.168.039-.181.026-.181.039-.181.026-.168.038-.168.026-.18.026-.181.026-.181.026-.181.026-.181.026-.181.025-.181.013-.181.026-.168.013-.181.026-.181.026-.168.026-.181.013-.181.012-.181.013-.18.013-.181.026-.181.013-.181.013-.181.013-.181.013-.181.013-.181.013-.181.013-.181.013-.181.012-.181.013-.18.013-.181v-.362l.013-.181V167.695l-.013-.159-.013-.168v-.168l-.013-.168v-.168l-.012-.168v-.168l-.013-.168-.013-.155-.013-.168-.013-.168-.013-.168-.013-.155-.013-.168-.013-.155-.013-.168-.026-.168-.013-.155-.012-.155-.026-.155-.013-.155-.026-.168-.013-.155-.026-.155-.026-.168-.013-.168-.013-.155-.025-.143-.052-.339-.039-.33-.052-.336-.051-.323-.065-.323-.064-.323-.052-.323-.065-.323-.077-.323-.078-.323-.077-.323-.078-.324-.077-.323-.078-.323-.077-.323-.091-.323-.09-.323-.091-.323-.103-.323-.091-.31-.103-.31-.103-.31-.104-.311-.103-.31-.117-.31-.116-.31-.116-.297-.116-.31-.117-.311-.116-.31-.129-.297-.117-.31-.129-.297-.129-.298-.129-.297-.142-.297-.13-.297-.142-.297-.142-.298-.142-.284-.155-.297-.142-.297-.155-.298-.155-.284-.156-.284-.155-.285-.155-.284-.155-.284-.168-.284-.168-.285-.168-.284-.181-.284-.168-.272-.168-.271-.181-.272-.181-.271-.18-.271-.181-.272-.181-.271-.181-.271-.194-.259-.194-.258-.194-.259-.194-.258-.193-.259-.207-.258-.207-.259-.207-.258-.206-.259-.207-.245-.22-.246-.207-.245-.219-.246-.22-.245-.22-.246-.219-.245-.22-.246-.233-.232-.232-.233-.233-.233-.233-.232-.232-.233-.246-.232-.245-.233-.246-.22-.245-.219-.246-.22-.245-.22-.246-.219-.258-.22-.259-.207-.258-.207-.246-.206-.271-.22-.116-.091-.13-.103-.129-.103-.129-.104-.129-.103-.13-.091-.129-.103-.129-.103-.142-.104-.142-.103-.13-.104-.129-.103-.129-.103-.129-.091-.13-.103-.142-.104-.129-.09-.129-.09-.142-.104-.142-.09-.143-.091-.129-.09-.142-.091-.142-.09-.142-.091-.142-.09-.143-.09-.142-.091-.142-.09-.142-.091-.142-.09-.142-.078-.142-.077-.168-.091-146.234-85.793-.206-.127-.188-.103-.194-.116-.193-.117-.19-.107-.194-.103-.188-.104-.193-.103-.194-.104-.194-.103-.19-.103-.194-.104-.194-.103-.194-.103-.193-.104-.194-.103-.194-.103-.198-.091-.194-.103-.194-.09-.193-.091-.194-.104-.201-.09-.193-.09-.194-.091-.202-.09-.194-.091-.194-.078-.2-.09-.196-.09-.194-.09-.2-.078-.194-.078-.207-.078-.199-.09-.204-.078-.207-.09-.207-.078-.2-.077-.2-.078-.203-.077-.207-.078-.207-.077-.194-.078-.193-.064-.194-.065-.207-.078-.207-.064-.194-.065-.206-.064-.207-.065-.194-.065-.207-.064-.207-.065-.206-.064-.194-.065-.207-.065-.207-.064-.206-.065-.207-.051-.207-.065-.207-.052-.207-.064-.206-.052-.207-.052-.207-.051-.207-.065-.206-.052-.207-.051-.207-.04-.207-.051-.206-.052-.207-.051-.207-.04-.207-.05-.206-.04-.207-.038-.207-.052-.207-.039-.207-.039-.206-.038-.207-.04-.207-.038-.207-.039-.219-.038-.207-.026-.207-.026-.207-.026-.206-.026-.207-.039-.207-.038-.207-.026-.219-.039-.207-.026-.207-.039-.207-.025-.206-.026-.207-.026-.207-.026-.207-.026-.219-.026-.207-.013-.207-.025-.207-.026-.206-.013-.207-.013-.207-.013-.207-.013-.206-.013-.22-.013-.22-.013-.207-.013-.206-.013h-.207l-.207-.013-.207-.012h-.219l-.207-.013-.207-.013-.194-.013-.206-.013h-.427l-.207-.013h-.413l-.208.087z" fill="#C9177E"/><path d="M153.324 388.825V121.039h56.026v97.541h92.935v-97.541h56.189v267.786h-56.189V271.737H209.35v117.088h-56.026z" fill="#fff"/></svg>